# Blender v2.79 (sub 0) OBJ File: ''
# www.blender.org
mtllib arrow.mtl
o Cone_Cone.002
v -0.604059 -2.239285 -3.406960
v -0.604058 -0.239285 -2.923006
v -0.563562 -2.239285 -3.405262
v -0.523350 -2.239285 -3.400182
v -0.483704 -2.239285 -3.391755
v -0.444902 -2.239285 -3.380040
v -0.407216 -2.239285 -3.365119
v -0.370912 -2.239285 -3.347098
v -0.336242 -2.239285 -3.326101
v -0.303451 -2.239285 -3.302277
v -0.272769 -2.239285 -3.275793
v -0.244410 -2.239285 -3.246834
v -0.218574 -2.239285 -3.215604
v -0.195442 -2.239285 -3.182321
v -0.175176 -2.239285 -3.147219
v -0.157919 -2.239285 -3.110545
v -0.143791 -2.239285 -3.072556
v -0.132891 -2.239285 -3.033517
v -0.125296 -2.239285 -2.993703
v -0.121059 -2.239285 -2.953393
v -0.120210 -2.239285 -2.912871
v -0.122755 -2.239285 -2.872419
v -0.128676 -2.239285 -2.832322
v -0.137932 -2.239285 -2.792861
v -0.150457 -2.239285 -2.754313
v -0.166163 -2.239285 -2.716948
v -0.184942 -2.239285 -2.681029
v -0.206660 -2.239285 -2.646807
v -0.231165 -2.239285 -2.614522
v -0.258286 -2.239285 -2.584401
v -0.287833 -2.239285 -2.556655
v -0.319597 -2.239285 -2.531479
v -0.353357 -2.239285 -2.509049
v -0.388875 -2.239285 -2.489522
v -0.425903 -2.239285 -2.473037
v -0.464180 -2.239285 -2.459707
v -0.503438 -2.239285 -2.449627
v -0.543402 -2.239285 -2.442868
v -0.583792 -2.239285 -2.439476
v -0.624324 -2.239285 -2.439476
v -0.664713 -2.239285 -2.442868
v -0.704678 -2.239285 -2.449627
v -0.743936 -2.239285 -2.459707
v -0.782213 -2.239285 -2.473036
v -0.819241 -2.239285 -2.489522
v -0.854759 -2.239285 -2.509048
v -0.888519 -2.239285 -2.531478
v -0.920283 -2.239285 -2.556654
v -0.949830 -2.239285 -2.584400
v -0.976951 -2.239285 -2.614521
v -1.001456 -2.239285 -2.646806
v -1.023175 -2.239285 -2.681028
v -1.041953 -2.239285 -2.716948
v -1.057660 -2.239285 -2.754313
v -1.070185 -2.239285 -2.792861
v -1.079440 -2.239285 -2.832322
v -1.085361 -2.239285 -2.872419
v -1.087906 -2.239285 -2.912870
v -1.087057 -2.239285 -2.953393
v -1.082821 -2.239285 -2.993703
v -1.075226 -2.239285 -3.033517
v -1.064326 -2.239285 -3.072556
v -1.050197 -2.239285 -3.110546
v -1.032940 -2.239285 -3.147220
v -1.012674 -2.239285 -3.182322
v -0.989542 -2.239285 -3.215604
v -0.963706 -2.239285 -3.246835
v -0.935347 -2.239285 -3.275794
v -0.904664 -2.239285 -3.302278
v -0.871873 -2.239285 -3.326102
v -0.837204 -2.239285 -3.347098
v -0.800899 -2.239285 -3.365120
v -0.763213 -2.239285 -3.380041
v -0.724411 -2.239285 -3.391756
v -0.684765 -2.239285 -3.400183
v -0.644552 -2.239285 -3.405262
v -0.604058 -2.239285 -3.923006
v -0.520380 -2.239285 -3.919498
v -0.437290 -2.239285 -3.909002
v -0.355368 -2.239285 -3.891589
v -0.275192 -2.239285 -3.867382
v -0.197322 -2.239285 -3.836551
v -0.122305 -2.239285 -3.799312
v -0.050667 -2.239285 -3.755927
v 0.017090 -2.239285 -3.706699
v 0.080489 -2.239285 -3.651974
v 0.139087 -2.239285 -3.592136
v 0.192472 -2.239285 -3.527605
v 0.240270 -2.239285 -3.458832
v 0.282145 -2.239285 -3.386302
v 0.317805 -2.239285 -3.310521
v 0.346998 -2.239285 -3.232023
v 0.369521 -2.239285 -3.151357
v 0.385214 -2.239285 -3.069089
v 0.393968 -2.239285 -2.985796
v 0.395722 -2.239285 -2.902063
v 0.390464 -2.239285 -2.818477
v 0.378229 -2.239285 -2.735625
v 0.359104 -2.239285 -2.654086
v 0.333224 -2.239285 -2.574434
v 0.300769 -2.239285 -2.497227
v 0.261967 -2.239285 -2.423006
v 0.217091 -2.239285 -2.352293
v 0.166455 -2.239285 -2.285582
v 0.110415 -2.239285 -2.223343
v 0.049363 -2.239285 -2.166011
v -0.016272 -2.239285 -2.113989
v -0.086031 -2.239285 -2.067642
v -0.159422 -2.239285 -2.027294
v -0.235933 -2.239285 -1.993229
v -0.315026 -2.239285 -1.965686
v -0.396146 -2.239285 -1.944858
v -0.478724 -2.239285 -1.930891
v -0.562182 -2.239285 -1.923883
v -0.645933 -2.239285 -1.923883
v -0.729390 -2.239285 -1.930891
v -0.811969 -2.239285 -1.944858
v -0.893089 -2.239285 -1.965686
v -0.972182 -2.239285 -1.993229
v -1.048692 -2.239285 -2.027293
v -1.122084 -2.239285 -2.067641
v -1.191842 -2.239285 -2.113988
v -1.257478 -2.239285 -2.166010
v -1.318530 -2.239285 -2.223341
v -1.374571 -2.239285 -2.285581
v -1.425207 -2.239285 -2.352291
v -1.470083 -2.239285 -2.423005
v -1.508885 -2.239285 -2.497226
v -1.541340 -2.239285 -2.574433
v -1.567221 -2.239285 -2.654086
v -1.586345 -2.239285 -2.735624
v -1.598580 -2.239285 -2.818477
v -1.603839 -2.239285 -2.902063
v -1.602085 -2.239285 -2.985797
v -1.593331 -2.239285 -3.069089
v -1.577637 -2.239285 -3.151357
v -1.555115 -2.239285 -3.232024
v -1.525921 -2.239285 -3.310522
v -1.490261 -2.239285 -3.386303
v -1.448385 -2.239285 -3.458834
v -1.400587 -2.239285 -3.527606
v -1.347202 -2.239285 -3.592138
v -1.288604 -2.239285 -3.651976
v -1.225204 -2.239285 -3.706701
v -1.157448 -2.239285 -3.755928
v -1.085809 -2.239285 -3.799314
v -1.010792 -2.239285 -3.836552
v -0.932922 -2.239285 -3.867383
v -0.852745 -2.239285 -3.891590
v -0.770823 -2.239285 -3.909002
v -0.687732 -2.239285 -3.919499
v -0.604059 -4.033497 -3.406960
v -0.563562 -4.033497 -3.405262
v -0.523350 -4.033497 -3.400182
v -0.483704 -4.033497 -3.391755
v -0.444902 -4.033497 -3.380040
v -0.407216 -4.033497 -3.365119
v -0.370912 -4.033497 -3.347098
v -0.336242 -4.033497 -3.326101
v -0.303451 -4.033497 -3.302277
v -0.272769 -4.033497 -3.275793
v -0.244410 -4.033497 -3.246834
v -0.218574 -4.033497 -3.215604
v -0.195442 -4.033497 -3.182321
v -0.175176 -4.033497 -3.147219
v -0.157919 -4.033497 -3.110545
v -0.143791 -4.033497 -3.072556
v -0.132891 -4.033497 -3.033517
v -0.125296 -4.033497 -2.993703
v -0.121059 -4.033497 -2.953393
v -0.120210 -4.033497 -2.912871
v -0.122755 -4.033497 -2.872419
v -0.128676 -4.033497 -2.832322
v -0.137932 -4.033497 -2.792861
v -0.150457 -4.033497 -2.754313
v -0.166163 -4.033497 -2.716948
v -0.184942 -4.033497 -2.681029
v -0.206660 -4.033497 -2.646807
v -0.231165 -4.033497 -2.614522
v -0.258286 -4.033497 -2.584401
v -0.287833 -4.033497 -2.556655
v -0.319597 -4.033497 -2.531479
v -0.353357 -4.033497 -2.509049
v -0.388875 -4.033497 -2.489522
v -0.425903 -4.033497 -2.473037
v -0.464180 -4.033497 -2.459707
v -0.503438 -4.033497 -2.449627
v -0.543402 -4.033497 -2.442868
v -0.583792 -4.033497 -2.439476
v -0.624324 -4.033497 -2.439476
v -0.664713 -4.033497 -2.442868
v -0.704678 -4.033497 -2.449627
v -0.743936 -4.033497 -2.459707
v -0.782213 -4.033497 -2.473036
v -0.819241 -4.033497 -2.489522
v -0.854759 -4.033497 -2.509048
v -0.888519 -4.033497 -2.531478
v -0.920283 -4.033497 -2.556654
v -0.949830 -4.033497 -2.584400
v -0.976951 -4.033497 -2.614521
v -1.001456 -4.033497 -2.646806
v -1.023175 -4.033497 -2.681028
v -1.041953 -4.033497 -2.716948
v -1.057660 -4.033497 -2.754313
v -1.070185 -4.033497 -2.792861
v -1.079440 -4.033497 -2.832322
v -1.085361 -4.033497 -2.872419
v -1.087906 -4.033497 -2.912870
v -1.087057 -4.033497 -2.953393
v -1.082821 -4.033497 -2.993703
v -1.075226 -4.033497 -3.033517
v -1.064326 -4.033497 -3.072556
v -1.050197 -4.033497 -3.110546
v -1.032940 -4.033497 -3.147220
v -1.012674 -4.033497 -3.182322
v -0.989542 -4.033497 -3.215604
v -0.963706 -4.033497 -3.246835
v -0.935347 -4.033497 -3.275794
v -0.904664 -4.033497 -3.302278
v -0.871873 -4.033497 -3.326102
v -0.837204 -4.033497 -3.347098
v -0.800899 -4.033497 -3.365120
v -0.763213 -4.033497 -3.380041
v -0.724411 -4.033497 -3.391756
v -0.684765 -4.033497 -3.400183
v -0.644552 -4.033497 -3.405262
vn 0.0375 0.4469 -0.8938
vn 0.1121 0.4469 -0.8875
vn 0.1860 0.4469 -0.8750
vn 0.2586 0.4469 -0.8564
vn 0.3293 0.4469 -0.8318
vn 0.3978 0.4469 -0.8013
vn 0.4634 0.4469 -0.7652
vn 0.5258 0.4469 -0.7237
vn 0.5845 0.4469 -0.6772
vn 0.6392 0.4469 -0.6259
vn 0.6893 0.4469 -0.5702
vn 0.7346 0.4469 -0.5106
vn 0.7747 0.4469 -0.4473
vn 0.8094 0.4469 -0.3809
vn 0.8385 0.4469 -0.3118
vn 0.8616 0.4469 -0.2406
vn 0.8787 0.4469 -0.1676
vn 0.8897 0.4469 -0.0935
vn 0.8944 0.4469 -0.0187
vn 0.8928 0.4469 0.0562
vn 0.8850 0.4469 0.1307
vn 0.8709 0.4469 0.2043
vn 0.8508 0.4469 0.2764
vn 0.8247 0.4469 0.3467
vn 0.7928 0.4469 0.4145
vn 0.7553 0.4469 0.4793
vn 0.7126 0.4469 0.5409
vn 0.6648 0.4469 0.5986
vn 0.6124 0.4469 0.6521
vn 0.5557 0.4469 0.7011
vn 0.4951 0.4469 0.7451
vn 0.4310 0.4469 0.7839
vn 0.3639 0.4469 0.8172
vn 0.2942 0.4469 0.8448
vn 0.2225 0.4469 0.8665
vn 0.1492 0.4469 0.8821
vn 0.0749 0.4469 0.8914
vn 0.0000 0.4469 0.8946
vn -0.0749 0.4469 0.8914
vn -0.1492 0.4469 0.8821
vn -0.2225 0.4469 0.8665
vn -0.2942 0.4469 0.8448
vn -0.3639 0.4469 0.8172
vn -0.4310 0.4469 0.7839
vn -0.4951 0.4469 0.7451
vn -0.5557 0.4469 0.7011
vn -0.6124 0.4469 0.6521
vn -0.6648 0.4469 0.5986
vn -0.7126 0.4469 0.5409
vn -0.7553 0.4469 0.4793
vn -0.7928 0.4469 0.4145
vn -0.8247 0.4469 0.3467
vn -0.8508 0.4469 0.2764
vn -0.8709 0.4469 0.2043
vn -0.8850 0.4469 0.1307
vn -0.8928 0.4469 0.0562
vn -0.8944 0.4469 -0.0187
vn -0.8897 0.4469 -0.0935
vn -0.8787 0.4469 -0.1676
vn -0.8616 0.4469 -0.2406
vn -0.8385 0.4469 -0.3118
vn -0.8094 0.4469 -0.3809
vn -0.7747 0.4469 -0.4473
vn -0.7346 0.4469 -0.5106
vn -0.6893 0.4469 -0.5702
vn -0.6392 0.4469 -0.6259
vn -0.5845 0.4469 -0.6772
vn -0.5258 0.4469 -0.7237
vn -0.4634 0.4469 -0.7652
vn -0.3978 0.4469 -0.8013
vn -0.3293 0.4469 -0.8318
vn -0.2586 0.4469 -0.8564
vn -0.1860 0.4469 -0.8750
vn -0.1121 0.4469 -0.8875
vn -0.0375 0.4469 -0.8938
vn -0.9632 0.0000 -0.2689
vn 0.0000 -1.0000 0.0000
vn 0.3289 0.0000 0.9444
vn 0.5878 0.0000 -0.8090
vn -0.9373 0.0000 -0.3486
vn 0.2487 0.0000 0.9686
vn 0.6534 0.0000 -0.7570
vn -0.9048 0.0000 -0.4258
vn 0.1668 0.0000 0.9860
vn 0.7145 0.0000 -0.6997
vn -0.8660 0.0000 -0.5000
vn 0.0837 0.0000 0.9965
vn 0.7705 0.0000 -0.6374
vn -0.8211 0.0000 -0.5707
vn 0.0000 0.0000 1.0000
vn 0.8211 0.0000 -0.5707
vn -0.7705 0.0000 -0.6374
vn -0.0837 0.0000 0.9965
vn 0.8660 0.0000 -0.5000
vn -0.7145 0.0000 -0.6997
vn -0.1668 0.0000 0.9860
vn 0.9048 0.0000 -0.4258
vn -0.6534 0.0000 -0.7570
vn -0.2487 0.0000 0.9686
vn 0.9373 0.0000 -0.3486
vn -0.5878 0.0000 -0.8090
vn -0.3289 0.0000 0.9444
vn 0.9632 0.0000 -0.2689
vn -0.5180 0.0000 -0.8554
vn -0.4067 0.0000 0.9135
vn 0.9823 0.0000 -0.1874
vn -0.4446 0.0000 -0.8957
vn -0.4818 0.0000 0.8763
vn 0.9945 0.0000 -0.1045
vn -0.3681 0.0000 -0.9298
vn -0.5534 0.0000 0.8329
vn 0.9998 0.0000 -0.0209
vn -0.2890 0.0000 -0.9573
vn -0.6211 0.0000 0.7837
vn 0.9980 0.0000 0.0628
vn -0.2079 0.0000 -0.9781
vn -0.6845 0.0000 0.7290
vn 0.9893 0.0000 0.1461
vn -0.1253 0.0000 -0.9921
vn -0.7431 0.0000 0.6691
vn 0.9736 0.0000 0.2283
vn -0.0419 0.0000 -0.9991
vn -0.7965 0.0000 0.6046
vn 0.9511 0.0000 0.3090
vn -0.8443 0.0000 0.5358
vn 0.9219 0.0000 0.3875
vn -0.8862 0.0000 0.4633
vn 0.8862 0.0000 0.4633
vn -0.9219 0.0000 0.3875
vn 0.8443 0.0000 0.5358
vn -0.9511 0.0000 0.3090
vn 0.7965 0.0000 0.6046
vn 0.0419 0.0000 -0.9991
vn -0.9736 0.0000 0.2284
vn 0.7431 0.0000 0.6691
vn 0.1253 0.0000 -0.9921
vn -0.9893 0.0000 0.1461
vn 0.6845 0.0000 0.7290
vn 0.2079 0.0000 -0.9781
vn -0.9980 0.0000 0.0628
vn 0.6212 0.0000 0.7837
vn 0.2890 0.0000 -0.9573
vn -0.9998 0.0000 -0.0209
vn 0.5534 0.0000 0.8329
vn 0.3681 0.0000 -0.9298
vn -0.9945 0.0000 -0.1045
vn 0.4818 0.0000 0.8763
vn 0.4446 0.0000 -0.8957
vn -0.9823 0.0000 -0.1874
vn 0.4067 0.0000 0.9135
vn 0.5180 0.0000 -0.8554
usemtl Material.004
s off
f 77//1 2//1 78//1
f 78//2 2//2 79//2
f 79//3 2//3 80//3
f 80//4 2//4 81//4
f 81//5 2//5 82//5
f 82//6 2//6 83//6
f 83//7 2//7 84//7
f 84//8 2//8 85//8
f 85//9 2//9 86//9
f 86//10 2//10 87//10
f 87//11 2//11 88//11
f 88//12 2//12 89//12
f 89//13 2//13 90//13
f 90//14 2//14 91//14
f 91//15 2//15 92//15
f 92//16 2//16 93//16
f 93//17 2//17 94//17
f 94//18 2//18 95//18
f 95//19 2//19 96//19
f 96//20 2//20 97//20
f 97//21 2//21 98//21
f 98//22 2//22 99//22
f 99//23 2//23 100//23
f 100//24 2//24 101//24
f 101//25 2//25 102//25
f 102//26 2//26 103//26
f 103//27 2//27 104//27
f 104//28 2//28 105//28
f 105//29 2//29 106//29
f 106//30 2//30 107//30
f 107//31 2//31 108//31
f 108//32 2//32 109//32
f 109//33 2//33 110//33
f 110//34 2//34 111//34
f 111//35 2//35 112//35
f 112//36 2//36 113//36
f 113//37 2//37 114//37
f 114//38 2//38 115//38
f 115//39 2//39 116//39
f 116//40 2//40 117//40
f 117//41 2//41 118//41
f 118//42 2//42 119//42
f 119//43 2//43 120//43
f 120//44 2//44 121//44
f 121//45 2//45 122//45
f 122//46 2//46 123//46
f 123//47 2//47 124//47
f 124//48 2//48 125//48
f 125//49 2//49 126//49
f 126//50 2//50 127//50
f 127//51 2//51 128//51
f 128//52 2//52 129//52
f 129//53 2//53 130//53
f 130//54 2//54 131//54
f 131//55 2//55 132//55
f 132//56 2//56 133//56
f 133//57 2//57 134//57
f 134//58 2//58 135//58
f 135//59 2//59 136//59
f 136//60 2//60 137//60
f 137//61 2//61 138//61
f 138//62 2//62 139//62
f 139//63 2//63 140//63
f 140//64 2//64 141//64
f 141//65 2//65 142//65
f 142//66 2//66 143//66
f 143//67 2//67 144//67
f 144//68 2//68 145//68
f 145//69 2//69 146//69
f 146//70 2//70 147//70
f 147//71 2//71 148//71
f 148//72 2//72 149//72
f 149//73 2//73 150//73
f 150//74 2//74 151//74
f 151//75 2//75 77//75
f 61//76 62//76 212//76 211//76
f 3//77 1//77 77//77 78//77
f 4//77 3//77 78//77 79//77
f 5//77 4//77 79//77 80//77
f 6//77 5//77 80//77 81//77
f 7//77 6//77 81//77 82//77
f 8//77 7//77 82//77 83//77
f 9//77 8//77 83//77 84//77
f 10//77 9//77 84//77 85//77
f 11//77 10//77 85//77 86//77
f 12//77 11//77 86//77 87//77
f 13//77 12//77 87//77 88//77
f 14//77 13//77 88//77 89//77
f 15//77 14//77 89//77 90//77
f 16//77 15//77 90//77 91//77
f 17//77 16//77 91//77 92//77
f 18//77 17//77 92//77 93//77
f 19//77 18//77 93//77 94//77
f 20//77 19//77 94//77 95//77
f 21//77 20//77 95//77 96//77
f 22//77 21//77 96//77 97//77
f 23//77 22//77 97//77 98//77
f 24//77 23//77 98//77 99//77
f 25//77 24//77 99//77 100//77
f 26//77 25//77 100//77 101//77
f 27//77 26//77 101//77 102//77
f 28//77 27//77 102//77 103//77
f 29//77 28//77 103//77 104//77
f 30//77 29//77 104//77 105//77
f 31//77 30//77 105//77 106//77
f 32//77 31//77 106//77 107//77
f 33//77 32//77 107//77 108//77
f 34//77 33//77 108//77 109//77
f 35//77 34//77 109//77 110//77
f 36//77 35//77 110//77 111//77
f 37//77 36//77 111//77 112//77
f 38//77 37//77 112//77 113//77
f 39//77 38//77 113//77 114//77
f 40//77 39//77 114//77 115//77
f 41//77 40//77 115//77 116//77
f 42//77 41//77 116//77 117//77
f 43//77 42//77 117//77 118//77
f 44//77 43//77 118//77 119//77
f 45//77 44//77 119//77 120//77
f 46//77 45//77 120//77 121//77
f 47//77 46//77 121//77 122//77
f 48//77 47//77 122//77 123//77
f 49//77 48//77 123//77 124//77
f 50//77 49//77 124//77 125//77
f 51//77 50//77 125//77 126//77
f 52//77 51//77 126//77 127//77
f 53//77 52//77 127//77 128//77
f 54//77 53//77 128//77 129//77
f 55//77 54//77 129//77 130//77
f 56//77 55//77 130//77 131//77
f 57//77 56//77 131//77 132//77
f 58//77 57//77 132//77 133//77
f 59//77 58//77 133//77 134//77
f 60//77 59//77 134//77 135//77
f 61//77 60//77 135//77 136//77
f 62//77 61//77 136//77 137//77
f 63//77 62//77 137//77 138//77
f 64//77 63//77 138//77 139//77
f 65//77 64//77 139//77 140//77
f 66//77 65//77 140//77 141//77
f 67//77 66//77 141//77 142//77
f 68//77 67//77 142//77 143//77
f 69//77 68//77 143//77 144//77
f 70//77 69//77 144//77 145//77
f 71//77 70//77 145//77 146//77
f 72//77 71//77 146//77 147//77
f 73//77 72//77 147//77 148//77
f 74//77 73//77 148//77 149//77
f 75//77 74//77 149//77 150//77
f 76//77 75//77 150//77 151//77
f 1//77 76//77 151//77 77//77
f 152//77 153//77 154//77 155//77 156//77 157//77 158//77 159//77 160//77 161//77 162//77 163//77 164//77 165//77 166//77 167//77 168//77 169//77 170//77 171//77 172//77 173//77 174//77 175//77 176//77 177//77 178//77 179//77 180//77 181//77 182//77 183//77 184//77 185//77 186//77 187//77 188//77 189//77 190//77 191//77 192//77 193//77 194//77 195//77 196//77 197//77 198//77 199//77 200//77 201//77 202//77 203//77 204//77 205//77 206//77 207//77 208//77 209//77 210//77 211//77 212//77 213//77 214//77 215//77 216//77 217//77 218//77 219//77 220//77 221//77 222//77 223//77 224//77 225//77 226//77
f 35//78 36//78 186//78 185//78
f 9//79 10//79 160//79 159//79
f 62//80 63//80 213//80 212//80
f 36//81 37//81 187//81 186//81
f 10//82 11//82 161//82 160//82
f 63//83 64//83 214//83 213//83
f 37//84 38//84 188//84 187//84
f 11//85 12//85 162//85 161//85
f 64//86 65//86 215//86 214//86
f 38//87 39//87 189//87 188//87
f 12//88 13//88 163//88 162//88
f 65//89 66//89 216//89 215//89
f 39//90 40//90 190//90 189//90
f 13//91 14//91 164//91 163//91
f 66//92 67//92 217//92 216//92
f 40//93 41//93 191//93 190//93
f 14//94 15//94 165//94 164//94
f 67//95 68//95 218//95 217//95
f 41//96 42//96 192//96 191//96
f 15//97 16//97 166//97 165//97
f 68//98 69//98 219//98 218//98
f 42//99 43//99 193//99 192//99
f 16//100 17//100 167//100 166//100
f 69//101 70//101 220//101 219//101
f 43//102 44//102 194//102 193//102
f 17//103 18//103 168//103 167//103
f 70//104 71//104 221//104 220//104
f 44//105 45//105 195//105 194//105
f 18//106 19//106 169//106 168//106
f 71//107 72//107 222//107 221//107
f 45//108 46//108 196//108 195//108
f 19//109 20//109 170//109 169//109
f 72//110 73//110 223//110 222//110
f 46//111 47//111 197//111 196//111
f 20//112 21//112 171//112 170//112
f 73//113 74//113 224//113 223//113
f 47//114 48//114 198//114 197//114
f 21//115 22//115 172//115 171//115
f 74//116 75//116 225//116 224//116
f 48//117 49//117 199//117 198//117
f 22//118 23//118 173//118 172//118
f 75//119 76//119 226//119 225//119
f 49//120 50//120 200//120 199//120
f 23//121 24//121 174//121 173//121
f 76//122 1//122 152//122 226//122
f 50//123 51//123 201//123 200//123
f 24//124 25//124 175//124 174//124
f 51//125 52//125 202//125 201//125
f 25//126 26//126 176//126 175//126
f 52//127 53//127 203//127 202//127
f 26//128 27//128 177//128 176//128
f 53//129 54//129 204//129 203//129
f 27//130 28//130 178//130 177//130
f 54//131 55//131 205//131 204//131
f 28//132 29//132 179//132 178//132
f 1//133 3//133 153//133 152//133
f 55//134 56//134 206//134 205//134
f 29//135 30//135 180//135 179//135
f 3//136 4//136 154//136 153//136
f 56//137 57//137 207//137 206//137
f 30//138 31//138 181//138 180//138
f 4//139 5//139 155//139 154//139
f 57//140 58//140 208//140 207//140
f 31//141 32//141 182//141 181//141
f 5//142 6//142 156//142 155//142
f 58//143 59//143 209//143 208//143
f 32//144 33//144 183//144 182//144
f 6//145 7//145 157//145 156//145
f 59//146 60//146 210//146 209//146
f 33//147 34//147 184//147 183//147
f 7//148 8//148 158//148 157//148
f 60//149 61//149 211//149 210//149
f 34//150 35//150 185//150 184//150
f 8//151 9//151 159//151 158//151
