# Blender v2.79 (sub 0) OBJ File: 'grass.blend'
# www.blender.org
mtllib grass.mtl
o Plane.006_Plane.023
v -0.541908 -0.208047 -1.371850
v 0.232640 -0.208047 -0.455294
v -2.026709 11.791952 0.210713
v -1.575380 11.791952 0.744788
v 0.049792 -0.208047 -1.086325
v -1.596619 11.791952 0.304998
v -1.663806 10.388298 -0.134307
v -1.233610 8.388298 -0.552486
v -0.905521 6.388298 -0.884377
v -0.679541 4.388298 -1.129980
v -0.555668 2.388298 -1.289296
v 0.148947 2.388299 -0.455494
v -0.028795 4.388298 -0.359926
v -0.308645 6.388298 -0.178069
v -0.690604 8.388298 0.090075
v -1.174671 10.388298 0.444507
v 0.000963 2.388299 -1.045062
v -0.149905 4.388298 -0.917569
v -0.402836 6.388298 -0.703825
v -0.757831 8.388298 -0.403831
v -1.214890 10.388298 -0.017587
v -0.230582 -0.208047 -0.000000
v 0.969419 -0.208047 -0.000000
v 0.019799 11.791952 2.155561
v 0.719037 11.791952 2.155561
v 0.369418 -0.208047 -0.267645
v 0.369418 11.791952 1.887917
v -0.009488 10.388298 1.655682
v -0.051218 8.388298 1.057183
v -0.092948 6.388298 0.592369
v -0.134679 4.388298 0.261239
v -0.176409 2.388299 0.063795
v 0.915246 2.388298 0.063795
v 0.873515 4.388298 0.261239
v 0.831785 6.388298 0.592369
v 0.790055 8.388298 1.057183
v 0.748325 10.388298 1.655682
v 0.369418 2.388299 -0.203716
v 0.369418 4.388298 -0.006192
v 0.369418 6.388298 0.324958
v 0.369418 8.388298 0.789736
v 0.369419 10.388298 1.388140
v 1.027809 -0.243425 -0.301354
v 1.312585 -0.243425 -1.467074
v 3.181212 13.797075 -0.033038
v 3.347151 13.797075 -0.712302
v 0.910198 -0.243425 -0.947730
v 3.004183 13.797075 -0.436186
v 2.688662 12.154741 -0.123216
v 2.097358 9.814659 -0.224710
v 1.635918 7.474575 -0.294479
v 1.304345 5.134491 -0.332522
v 1.102638 2.794408 -0.338840
v 1.361702 2.794408 -1.399309
v 1.543603 5.134492 -1.311915
v 1.855370 7.474575 -1.192795
v 2.297003 9.814659 -1.041950
v 2.868502 12.154741 -0.859380
v 0.972301 2.794408 -0.932559
v 1.164182 5.134492 -0.885684
v 1.485873 7.474575 -0.807097
v 1.937373 9.814659 -0.696799
v 2.518682 12.154741 -0.554790
v 1.218715 -0.208047 -1.934335
v 0.465568 -0.208047 -1.000113
v -0.616573 11.791952 -3.092288
v -1.055431 11.791952 -2.547918
v 1.050507 -0.208047 -1.299244
v -0.627636 11.791952 -2.652123
v -0.209027 10.388298 -2.801353
v 0.283106 8.388298 -2.458209
v 0.671163 6.388298 -2.198969
v 0.955144 4.388298 -2.023632
v 1.135049 2.388298 -1.932199
v 0.449903 2.388298 -1.082327
v 0.322379 4.388298 -1.238735
v 0.090780 6.388298 -1.479047
v -0.244896 8.388298 -1.803263
v -0.684647 10.388298 -2.211382
v 1.000738 2.388298 -1.339367
v 0.846962 4.388298 -1.463338
v 0.589155 6.388298 -1.671175
v 0.227318 8.388298 -1.962880
v -0.238550 10.388298 -2.338451
v 0.428560 -0.141060 -0.137796
v 0.828137 -0.141060 -0.706911
v 1.534234 7.995175 0.461218
v 1.767067 7.995175 0.129596
v 0.501415 -0.141060 -0.511474
v 1.523717 7.995175 0.206286
v 1.287408 7.043470 0.308658
v 0.989667 5.687431 0.129160
v 0.755328 4.331391 -0.005823
v 0.584390 2.975352 -0.096291
v 0.476855 1.619313 -0.142246
v 0.840354 1.619313 -0.659976
v 0.920099 2.975352 -0.574440
v 1.063246 4.331391 -0.444389
v 1.269795 5.687431 -0.269824
v 1.539745 7.043470 -0.050745
v 0.531734 1.619313 -0.490187
v 0.625412 2.975352 -0.424415
v 0.782464 4.331392 -0.314148
v 1.002891 5.687431 -0.159387
v 1.286692 7.043470 0.039870
v -0.083292 -0.141060 -1.368598
v -0.089097 -0.141060 -0.673243
v -1.333572 7.995176 -1.233940
v -1.336954 7.995176 -0.828757
v 0.068896 -0.141060 -1.019626
v -1.180173 7.995176 -1.030054
v -1.043769 7.043471 -1.248493
v -0.696759 5.687431 -1.269778
v -0.427214 4.331392 -1.291711
v -0.235135 2.975353 -1.314290
v -0.120521 1.619313 -1.337516
v -0.125802 1.619314 -0.704942
v -0.240012 2.975353 -0.730079
v -0.431687 4.331392 -0.755862
v -0.700828 5.687431 -0.782291
v -1.047435 7.043471 -0.809368
v 0.031851 1.619314 -1.019935
v -0.082607 2.975353 -1.020890
v -0.274496 4.331392 -1.022493
v -0.543817 5.687431 -1.024741
v -0.890570 7.043471 -1.027636
v 1.618591 -0.141060 -0.995428
v 1.175818 -0.141060 -1.531624
v 2.489375 7.995175 -1.902658
v 2.231373 7.995175 -2.215099
v 1.277613 -0.141060 -1.164772
v 2.240783 7.995175 -1.960124
v 2.276821 7.043470 -1.705128
v 2.024791 5.687431 -1.465649
v 1.832495 4.331391 -1.275497
v 1.699934 2.975352 -1.134672
v 1.627108 1.619313 -1.043173
v 1.224313 1.619313 -1.530957
v 1.327934 2.975352 -1.585163
v 1.491290 4.331392 -1.688696
v 1.714381 5.687431 -1.841555
v 1.997205 7.043470 -2.043742
v 1.306178 1.619313 -1.188360
v 1.394438 2.975352 -1.261242
v 1.542406 4.331392 -1.383429
v 1.750082 5.687431 -1.554920
v 2.017467 7.043470 -1.775718
vn -0.9574 -0.2813 0.0652
vn -0.2240 -0.2813 0.9331
vn -0.4188 -0.0267 0.9077
vn -0.3859 -0.0923 0.9179
vn -0.3518 -0.1483 0.9242
vn -0.3124 -0.2001 0.9286
vn -0.2673 -0.2466 0.9315
vn -0.9648 -0.0267 0.2615
vn -0.9694 -0.0923 0.2274
vn -0.9700 -0.1483 0.1928
vn -0.9677 -0.2001 0.1532
vn -0.9630 -0.2466 0.1082
vn -0.5681 -0.2813 0.7734
vn 0.5681 -0.2813 0.7734
vn 0.4230 -0.0267 0.9057
vn 0.4520 -0.0923 0.8872
vn 0.4789 -0.1483 0.8653
vn 0.5076 -0.2001 0.8380
vn 0.5389 -0.2466 0.8054
vn -0.4230 -0.0267 0.9057
vn -0.4520 -0.0923 0.8872
vn -0.4789 -0.1483 0.8653
vn -0.5076 -0.2001 0.8380
vn -0.5389 -0.2466 0.8054
vn 0.6231 -0.2430 0.7434
vn 0.8957 -0.2430 -0.3724
vn 0.9803 -0.0228 -0.1960
vn 0.9703 -0.0790 -0.2288
vn 0.9570 -0.1271 -0.2606
vn 0.9396 -0.1719 -0.2958
vn 0.9179 -0.2125 -0.3352
vn 0.7795 -0.0228 0.6259
vn 0.7555 -0.0790 0.6504
vn 0.7291 -0.1271 0.6725
vn 0.6974 -0.1719 0.6958
vn 0.6600 -0.2125 0.7206
vn -0.2455 -0.2813 -0.9277
vn -0.9586 -0.2813 -0.0431
vn -0.9706 -0.0267 -0.2391
vn -0.9744 -0.0923 -0.2049
vn -0.9742 -0.1483 -0.1703
vn -0.9710 -0.2001 -0.1308
vn -0.9653 -0.2466 -0.0859
vn -0.4396 -0.0267 -0.8978
vn -0.4070 -0.0923 -0.9088
vn -0.3731 -0.1483 -0.9159
vn -0.3338 -0.2001 -0.9212
vn -0.2888 -0.2466 -0.9251
vn 0.3098 -0.2430 0.9192
vn 0.9698 -0.2430 -0.0208
vn 0.9844 -0.0228 0.1743
vn 0.9870 -0.0790 0.1400
vn 0.9863 -0.1271 0.1056
vn 0.9829 -0.1719 0.0665
vn 0.9769 -0.2125 0.0219
vn 0.4982 -0.0228 0.8667
vn 0.4669 -0.0790 0.8808
vn 0.4343 -0.1271 0.8918
vn 0.3963 -0.1719 0.9019
vn 0.3524 -0.2125 0.9114
vn -0.7769 -0.2430 -0.5808
vn -0.7865 -0.2430 0.5677
vn -0.9093 -0.0228 0.4155
vn -0.8920 -0.0790 0.4451
vn -0.8718 -0.1271 0.4730
vn -0.8468 -0.1719 0.5033
vn -0.8166 -0.2125 0.5366
vn -0.9023 -0.0228 -0.4306
vn -0.8844 -0.0790 -0.4600
vn -0.8638 -0.1271 -0.4875
vn -0.8383 -0.1719 -0.5174
vn -0.8076 -0.2125 -0.5502
vn 0.9685 -0.2430 -0.0549
vn 0.2371 -0.2430 -0.9406
vn 0.4291 -0.0228 -0.9030
vn 0.3967 -0.0790 -0.9145
vn 0.3634 -0.1271 -0.9229
vn 0.3247 -0.1719 -0.9301
vn 0.2802 -0.2125 -0.9361
vn 0.9678 -0.0228 -0.2506
vn 0.9731 -0.0790 -0.2166
vn 0.9750 -0.1271 -0.1823
vn 0.9747 -0.1719 -0.1430
vn 0.9722 -0.2125 -0.0981
usemtl grassType1.002
s off
f 21//1 16//1 4//1 6//1
f 7//2 21//2 6//2 3//2
f 1//3 5//3 17//3 11//3
f 11//4 17//4 18//4 10//4
f 10//5 18//5 19//5 9//5
f 9//6 19//6 20//6 8//6
f 8//7 20//7 21//7 7//7
f 5//8 2//8 12//8 17//8
f 17//9 12//9 13//9 18//9
f 18//10 13//10 14//10 19//10
f 19//11 14//11 15//11 20//11
f 20//12 15//12 16//12 21//12
usemtl grassType1
f 42//13 37//13 25//13 27//13
f 28//14 42//14 27//14 24//14
f 22//15 26//15 38//15 32//15
f 32//16 38//16 39//16 31//16
f 31//17 39//17 40//17 30//17
f 30//18 40//18 41//18 29//18
f 29//19 41//19 42//19 28//19
f 26//20 23//20 33//20 38//20
f 38//21 33//21 34//21 39//21
f 39//22 34//22 35//22 40//22
f 40//23 35//23 36//23 41//23
f 41//24 36//24 37//24 42//24
f 63//25 58//25 46//25 48//25
f 49//26 63//26 48//26 45//26
f 43//27 47//27 59//27 53//27
f 53//28 59//28 60//28 52//28
f 52//29 60//29 61//29 51//29
f 51//30 61//30 62//30 50//30
f 50//31 62//31 63//31 49//31
f 47//32 44//32 54//32 59//32
f 59//33 54//33 55//33 60//33
f 60//34 55//34 56//34 61//34
f 61//35 56//35 57//35 62//35
f 62//36 57//36 58//36 63//36
f 84//37 79//37 67//37 69//37
f 70//38 84//38 69//38 66//38
f 64//39 68//39 80//39 74//39
f 74//40 80//40 81//40 73//40
f 73//41 81//41 82//41 72//41
f 72//42 82//42 83//42 71//42
f 71//43 83//43 84//43 70//43
f 68//44 65//44 75//44 80//44
f 80//45 75//45 76//45 81//45
f 81//46 76//46 77//46 82//46
f 82//47 77//47 78//47 83//47
f 83//48 78//48 79//48 84//48
usemtl grassType2
f 105//49 100//49 88//49 90//49
f 91//50 105//50 90//50 87//50
f 85//51 89//51 101//51 95//51
f 95//52 101//52 102//52 94//52
f 94//53 102//53 103//53 93//53
f 93//54 103//54 104//54 92//54
f 92//55 104//55 105//55 91//55
f 89//56 86//56 96//56 101//56
f 101//57 96//57 97//57 102//57
f 102//58 97//58 98//58 103//58
f 103//59 98//59 99//59 104//59
f 104//60 99//60 100//60 105//60
f 126//61 121//61 109//61 111//61
f 112//62 126//62 111//62 108//62
f 106//63 110//63 122//63 116//63
f 116//64 122//64 123//64 115//64
f 115//65 123//65 124//65 114//65
f 114//66 124//66 125//66 113//66
f 113//67 125//67 126//67 112//67
f 110//68 107//68 117//68 122//68
f 122//69 117//69 118//69 123//69
f 123//70 118//70 119//70 124//70
f 124//71 119//71 120//71 125//71
f 125//72 120//72 121//72 126//72
f 147//73 142//73 130//73 132//73
f 133//74 147//74 132//74 129//74
f 127//75 131//75 143//75 137//75
f 137//76 143//76 144//76 136//76
f 136//77 144//77 145//77 135//77
f 135//78 145//78 146//78 134//78
f 134//79 146//79 147//79 133//79
f 131//80 128//80 138//80 143//80
f 143//81 138//81 139//81 144//81
f 144//82 139//82 140//82 145//82
f 145//83 140//83 141//83 146//83
f 146//84 141//84 142//84 147//84
